<?xml version="1.0" encoding="iso-8859-1"?>
<!-- Uploaded to: SVG Repo, www.svgrepo.com, Generator: SVG Repo Mixer Tools -->
<svg height="800px" width="800px" version="1.1" id="Layer_1" xmlns="http://www.w3.org/2000/svg" xmlns:xlink="http://www.w3.org/1999/xlink" 
	 viewBox="0 0 512 512" xml:space="preserve">
<path style="fill:#515262;" d="M230.496,14.645c-39.167,0-75.879,9.624-102.168,18.898c-2.603,0.917-5.253,1.353-7.876,1.353
	c-6.691,0-13.208-2.826-18.323-7.661c-5.675-5.364-13.291-8.669-21.685-8.669H40.545c-17.555,0-31.919,14.364-31.919,31.919v167.576
	c0,17.556,14.364,31.919,31.919,31.919h39.899c17.556,0,31.919-14.363,31.919-31.919l0,0c0-15.094,10.457-28.666,25.327-31.265
	c4.396-0.769,8.72-1.098,12.927-1.098c16.376,0,31.015,4.981,41.543,8.423c8.55,2.795,19.313,3.727,29.884,3.727
	c21.15,0,41.54-3.73,41.931-3.73c0.007,0,0.007,0.001,0.003,0.003c-103.773,47.855-112.061,216.577-111.702,279.415
	c0.076,13.184,10.742,23.818,23.926,23.818H320.37c12.846,0,23.354-10.179,23.856-23.015
	c7.747-198.408,113.763-327.84,148.332-364.962c6.962-7.476,10.815-17.259,10.815-27.474c0,0,0-23.19,0-23.439
	c0-10.972-63.839-39.899-71.818-39.899c-34.134,0-60.886,6.502-96.792,6.502c-17.956,0-38.196-1.625-62.804-6.502
	C258.065,15.812,244.132,14.645,230.496,14.645L230.496,14.645z"/>
<path style="fill:#FF6464;" d="M231.083,45.208c12.429,0,24.423,1.128,35.648,3.353c23.186,4.596,44.846,6.829,66.217,6.829
	c19.073,0,35.365-1.715,51.12-3.374c13.784-1.451,26.845-2.826,41.064-2.967c9.557,2.911,36.085,15.482,47.539,23.196v13.67
	c0,3.647-1.371,7.128-3.861,9.802c-33.474,35.945-147.565,167.895-155.989,370.246L186,466.033c-0.131-50.152,6.081-203.458,94-244
	c10.663-4.917,17.771-23.46,15.254-34.93s-12.512-22.07-24.254-22.07c-2.037,0-9.591-2.226-11-2c-16.419,2.632-24.611,3-32,3
	c-12.247,0-17.255-0.103-20-1l-7.113-1.83c-11.099-3.636-22.434-8.17-41.887-8.17c-5.749,0-17.513,0.041-23,1
	c-26.33,4.601-50,15.632-50,43c0,3.352,1.842,20-1.51,20H45.511c-3.352,0-6.183-3.648-6.183-7V55.222
	c0-3.352,2.831-6.183,6.183-6.183H84.49c1.884,0,3.222,0.891,4.013,1.638c9.767,9.231,22.223,14.316,35.073,14.316
	c5.46,0,10.847-0.924,16.011-2.746C161.622,54.474,195.382,45.208,231.083,45.208L231.083,45.208"/>
<g>
	<path style="fill:#2D2B29;" d="M498.447,40.509c-7.497-5.221-17.095-10.388-23.827-13.804c-9.178-4.656-34.725-16.74-42.62-16.74
		c-17.314,0-32.966,1.648-48.102,3.241c-30.425,3.204-61.884,6.516-110.343-3.088c-55.449-10.991-111.204,2.263-148.211,15.317
		c-6.041,2.131-12.811,0.414-18.109-4.594C99.814,13.827,90.142,9.965,80,9.965H40c-22.056,0-40,17.944-40,40v168
		c0,22.056,17.944,40,40,40h40c22.056,0,40-17.944,40-40c0-11.507,8.068-21.594,18.768-23.464
		c19.018-3.322,36.734,2.479,49.668,6.716l1.078,0.353c11.694,3.823,26.711,4.56,40.998,3.968
		c-31.461,25.598-54.728,66.058-69.382,120.787c-14.534,54.283-17.33,110.341-17.116,147.809
		c0.1,17.553,14.449,31.833,31.986,31.833h144.533c17.22,0,31.236-13.512,31.91-30.761c7.69-196.948,114.13-325.911,146.569-360.746
		C507.388,105.464,512,93.747,512,81.463V57.965C512,52.346,507.947,47.125,498.447,40.509z M496,81.463
		c0,8.223-3.088,16.068-8.697,22.09c-18.235,19.582-53.617,61.743-85.697,124.1c-39.858,77.475-61.778,160.552-65.15,246.926
		c-0.337,8.627-7.331,15.385-15.922,15.385H176c-8.765,0-15.937-7.143-15.986-15.924c-0.383-66.967,9.311-227.607,107.336-272.811
		c3.63-1.674,5.471-5.773,4.306-9.597c-0.428-1.407-2.182-5.597-7.807-5.597c-0.643,0-1.336,0.055-2.084,0.174
		c-13.665,2.191-47.576,6.592-67.279,0.151l-1.069-0.35c-13.718-4.493-34.449-11.286-57.404-7.271
		C117.463,181.982,104,198.478,104,217.965c0,13.233-10.766,24-24,24H40c-13.234,0-24-10.767-24-24v-168c0-13.233,10.766-24,24-24
		h40c6.038,0,11.807,2.31,16.245,6.504c9.598,9.072,22.789,12.159,34.422,8.055c35.122-12.39,87.88-24.998,139.778-14.712
		c50.833,10.075,83.519,6.634,115.129,3.306c15.33-1.614,29.813-3.139,46.19-3.153c2.952,0.456,16.443,5.431,33.731,14.061
		C486.258,50.389,494.148,56.942,496,59.208V81.463z"/>
	<path style="fill:#2D2B29;" d="M110.848,73.666c3.057,0.444,6.173,0.669,9.261,0.669c7.233,0,14.367-1.223,21.203-3.634
		c21.556-7.604,54.514-16.667,89.12-16.667c11.818,0,23.188,1.065,33.792,3.167c24.72,4.9,47.859,7.282,70.739,7.282
		c4.418,0,8-3.582,8-8s-3.582-8-8-8c-21.824,0-43.945-2.282-67.629-6.976c-11.626-2.304-24.042-3.473-36.903-3.473
		c-36.87,0-71.708,9.559-94.442,17.578c-7.318,2.582-15.184,3.333-22.842,2.22c-4.374-0.636-8.432,2.395-9.066,6.768
		C103.445,68.972,106.475,73.032,110.848,73.666z"/>
	<path style="fill:#2D2B29;" d="M367.991,62.966c0.229,0,0.459-0.01,0.691-0.03c5.698-0.487,11.131-1.04,16.155-1.565
		c4.395-0.458,7.584-4.393,7.125-8.788c-0.459-4.394-4.389-7.591-8.788-7.125c-4.946,0.517-10.291,1.06-15.857,1.537
		c-4.402,0.376-7.666,4.251-7.289,8.653C360.386,59.818,363.881,62.966,367.991,62.966z"/>
	<path style="fill:#2D2B29;" d="M476.216,64.092c-12.615-7.821-35.355-18.468-45.123-21.698c-0.846-0.279-1.732-0.417-2.625-0.403
		c-4.177,0.059-8.413,0.22-12.948,0.493c-4.41,0.265-7.771,4.055-7.505,8.465c0.265,4.41,4.059,7.771,8.465,7.506
		c3.785-0.228,7.342-0.373,10.827-0.442c8.362,2.992,25.476,11.01,36.692,17.431v6.021c0,0.11-0.036,0.197-0.115,0.282
		c-15.439,16.579-45.856,52.243-76.106,104.823c-37.183,64.632-62.349,133.951-74.8,206.032c-0.752,4.354,2.168,8.493,6.521,9.245
		c0.461,0.08,0.919,0.118,1.371,0.118c3.821,0,7.202-2.747,7.874-6.64C357.273,230.16,448.356,121.897,475.592,92.651
		c2.842-3.051,4.407-7.024,4.407-11.187V70.891C480,68.123,478.569,65.551,476.216,64.092z"/>
	<path style="fill:#2D2B29;" d="M317.149,418.02c-4.395-0.519-8.366,2.619-8.883,7.006c-1.286,10.883-2.29,21.931-2.995,32.938
		H192.133c0.654-32.263,4.002-76.797,15.364-119.227c15.135-56.526,39.781-93.014,73.253-108.45
		c16.929-7.807,26.315-26.69,22.318-44.9c-3.996-18.21-20.428-31.427-39.071-31.427c-3.228,0-5.577,0.376-7.303,0.652
		c-15.917,2.552-27.674,3.087-34.735,3.087c-11.572,0-16.631-1.463-17.527-1.756l-1.059-0.346
		c-12.254-4.014-30.772-10.079-53.023-10.079c-6.724,0-13.4,0.571-19.846,1.698c-31.289,5.468-54.659,31.236-58.074,62.747H48
		V57.954l31.77-0.042c4.418-0.006,7.995-3.592,7.989-8.011c-0.006-4.415-3.586-7.989-8-7.989c-0.004,0-0.008,0-0.011,0
		l-39.759,0.053c-4.414,0.006-7.989,3.586-7.989,8v168c0,4.418,3.582,8,8,8h40c4.418,0,8-3.582,8-8
		c0-27.278,19.034-50.403,45.259-54.986c5.538-0.968,11.289-1.458,17.091-1.458c19.697,0,36.755,5.587,48.048,9.286l1.06,0.347
		c2.911,0.952,9.705,2.548,22.501,2.548c7.642,0,20.311-0.571,37.274-3.29c1.445-0.231,2.809-0.45,4.764-0.45
		c11.186,0,21.045,7.931,23.443,18.857c2.398,10.927-3.233,22.257-13.39,26.941c-37.995,17.521-65.586,57.504-82.009,118.841
		c-12.777,47.717-15.764,97.741-16.021,131.304c-0.016,2.132,0.82,4.183,2.322,5.696c1.502,1.514,3.546,2.365,5.678,2.365h128.801
		c4.258,0,7.77-3.335,7.989-7.587c0.68-13.154,1.805-26.435,3.345-39.474C324.674,422.516,321.537,418.539,317.149,418.02z"/>
</g>
</svg>